<?xml version="1.0" encoding="UTF-8"?><svg id="a" xmlns="http://www.w3.org/2000/svg" viewBox="0 0 128.52 36.09"><path d="M44.4,29.13c-.53,0-1.02-.09-1.48-.26-.46-.17-.85-.42-1.19-.73-.33-.31-.59-.68-.78-1.09-.19-.42-.28-.88-.28-1.38s.12-.99.34-1.43c.23-.44.55-.81.96-1.11.41-.31.9-.55,1.47-.72.57-.17,1.19-.26,1.88-.26.49,0,.96.04,1.43.12.47.08.88.2,1.24.35v-.63c0-.72-.21-1.28-.61-1.67-.41-.39-1.02-.58-1.82-.58-.58,0-1.15.1-1.71.31s-1.13.51-1.71.92l-.85-1.77c1.4-.93,2.92-1.4,4.54-1.4s2.79.39,3.66,1.16c.87.77,1.3,1.89,1.3,3.35v3.4c0,.29.05.5.16.63.1.12.27.19.51.21v2.38c-.47.1-.88.15-1.23.15-.53,0-.93-.12-1.22-.35-.28-.24-.46-.55-.53-.94l-.06-.6c-.49.64-1.08,1.13-1.77,1.46s-1.44.5-2.23.5ZM45.19,27.09c.47,0,.92-.08,1.34-.25.42-.17.75-.39.99-.67.31-.24.46-.5.46-.79v-1.25c-.33-.12-.69-.23-1.08-.3-.39-.08-.77-.11-1.13-.11-.72,0-1.31.16-1.77.49-.46.33-.69.74-.69,1.24,0,.47.18.86.54,1.18.36.31.81.47,1.33.47Z" fill="#fff" stroke-width="0"/><path d="M63.45,28.92h-2.79v-6.13c0-.88-.15-1.51-.46-1.92-.31-.4-.73-.6-1.27-.6-.28,0-.56.06-.85.17s-.57.27-.82.47c-.26.2-.49.44-.7.72-.21.28-.36.58-.46.92v6.38h-2.79v-10.92h2.52v2.02c.4-.69.99-1.24,1.75-1.63s1.63-.58,2.58-.58c.68,0,1.24.12,1.67.38.43.25.76.58,1,.98.24.4.4.86.49,1.38.09.51.14,1.04.14,1.56v6.82Z" fill="#fff" stroke-width="0"/><path d="M65.07,27.21l6.09-7.25h-5.84v-1.96h8.78v1.71l-6.04,7.25h6.15v1.96h-9.13v-1.71Z" fill="#fff" stroke-width="0"/><path d="M86.54,27.25c-1.18,1.18-2.56,1.77-4.13,1.77-.97,0-1.89-.19-2.74-.58-.85-.39-1.6-.92-2.23-1.61-.63-.68-1.13-1.48-1.5-2.41-.37-.92-.55-1.92-.55-2.99,0-1.01.18-1.97.55-2.87s.88-1.68,1.52-2.36c.65-.67,1.41-1.21,2.28-1.6.88-.4,1.83-.59,2.86-.59,1.39,0,2.58.29,3.57.88.99.58,1.74,1.37,2.24,2.35l-2.15,1.58c-.38-.74-.9-1.3-1.57-1.69-.67-.39-1.41-.58-2.2-.58-.63,0-1.2.13-1.72.4-.52.26-.97.63-1.33,1.08-.37.46-.65.99-.85,1.58-.2.6-.3,1.23-.3,1.9s.11,1.34.33,1.95c.22.61.53,1.13.92,1.57.39.44.85.8,1.39,1.05.53.26,1.11.39,1.74.39,1.43,0,2.72-.67,3.88-2.02v-1.04h-2.98v-2.11h5.36v7.61h-2.38v-1.67Z" fill="#fff" stroke-width="0"/><path d="M97.53,20.41c-.85.01-1.61.18-2.27.49-.67.31-1.15.78-1.44,1.41v6.61h-2.79v-10.92h2.56v2.33c.19-.37.42-.71.69-1.01.26-.3.55-.56.85-.78.31-.22.61-.39.93-.51s.61-.18.91-.18h.34c.08,0,.15,0,.22.02v2.54Z" fill="#fff" stroke-width="0"/><path d="M101.84,29.13c-.53,0-1.02-.09-1.48-.26-.46-.17-.85-.42-1.19-.73-.33-.31-.59-.68-.78-1.09-.19-.42-.28-.88-.28-1.38s.12-.99.34-1.43c.23-.44.55-.81.96-1.11.41-.31.9-.55,1.47-.72.57-.17,1.19-.26,1.88-.26.49,0,.96.04,1.43.12.47.08.88.2,1.24.35v-.63c0-.72-.21-1.28-.61-1.67-.41-.39-1.02-.58-1.82-.58-.58,0-1.15.1-1.71.31s-1.13.51-1.71.92l-.85-1.77c1.4-.93,2.92-1.4,4.54-1.4s2.79.39,3.66,1.16c.87.77,1.3,1.89,1.3,3.35v3.4c0,.29.05.5.16.63.1.12.27.19.51.21v2.38c-.47.1-.88.15-1.23.15-.53,0-.93-.12-1.22-.35-.28-.24-.46-.55-.53-.94l-.06-.6c-.49.64-1.08,1.13-1.77,1.46s-1.44.5-2.23.5ZM102.63,27.09c.47,0,.92-.08,1.34-.25.42-.17.75-.39.99-.67.31-.24.46-.5.46-.79v-1.25c-.33-.12-.69-.23-1.08-.3-.39-.08-.77-.11-1.13-.11-.72,0-1.31.16-1.77.49-.46.33-.69.74-.69,1.24,0,.47.18.86.54,1.18.36.31.81.47,1.33.47Z" fill="#fff" stroke-width="0"/><path d="M127.71,28.92h-2.79v-6.13c0-.88-.15-1.51-.45-1.92-.3-.4-.71-.6-1.24-.6-.56,0-1.08.21-1.56.64s-.83.98-1.04,1.66v6.36h-2.79v-6.13c0-.88-.15-1.51-.45-1.92-.3-.4-.71-.6-1.24-.6s-1.06.21-1.55.63-.84.97-1.05,1.65v6.38h-2.79v-10.92h2.52v2.02c.4-.71.96-1.25,1.66-1.64.7-.38,1.5-.57,2.41-.57s1.63.22,2.13.67c.5.44.82.99.96,1.65.44-.75,1.01-1.32,1.69-1.72.68-.4,1.46-.59,2.33-.59.67,0,1.22.12,1.65.38.43.25.76.58,1,.98.24.4.4.86.49,1.38.09.51.14,1.04.14,1.56v6.82Z" fill="#fff" stroke-width="0"/><circle cx="18.39" cy="18.02" r="16.26" fill="none" stroke="#209ce2" stroke-miterlimit="10" stroke-width="3"/><circle cx="18.39" cy="18.02" r="6.5" fill="none" stroke="#209ce2" stroke-miterlimit="10" stroke-width="3"/><path d="M15.67,12.76c-.28-.21-.54-.41-.74-.59-.69-.64-1.04-1.58-1.04-2.82s.78-2.3,2.34-3.19c1.56-.88,3.21-1.32,4.94-1.32s3.19.33,4.36,1c1.17.67,1.76,1.57,1.76,2.71s-.46,2.2-1.39,3.19c-.29.32-.43.68-.43,1.08s.16.75.48,1.04c.32.29.77.43,1.37.43s1.24-.36,1.93-1.08c1.21-1.33,1.81-2.97,1.8-4.92-.02-1.95-.92-3.51-2.71-4.68-1.79-1.17-4.09-1.76-6.9-1.76-3.18,0-5.96.71-8.35,2.12-2.39,1.42-3.58,3.33-3.58,5.73,0,1.13.14,1.96.41,2.49.28.53.48.94.61,1.21.13.28.4.6.82.98.42.38.71.65.87.82.1.11.31.28.6.48.57-1.28,1.58-2.32,2.85-2.92Z" fill="#209ce2" stroke-width="0"/><path d="M28.55,20.88c-.14-.23-.43-.52-.87-.87-.43-.35-.74-.6-.93-.76-.19-.16-.57-.42-1.15-.78-.58-.36-.98-.61-1.21-.74-.09-.05-.23-.13-.4-.22.02.17.03.35.03.53,0,1.3-.43,2.49-1.14,3.46.29.19.6.4.91.63,1.27.98,1.91,2.23,1.91,3.75s-.66,2.75-1.97,3.71c-1.32.95-3.25,1.43-5.81,1.43s-4.53-.46-5.92-1.39c-1.39-.93-2.08-2.25-2.08-3.99,0-.4.1-.92.3-1.54.2-.62.3-1.09.3-1.41,0-.78-.47-1.17-1.41-1.17s-1.73.41-2.39,1.24c-.65.82-.98,1.79-.98,2.88,0,2.75,1.15,4.86,3.45,6.33s5.18,2.21,8.65,2.21,6.38-.78,8.72-2.34c2.34-1.56,3.51-3.69,3.51-6.38,0-1.59-.3-2.82-.91-3.69-.26-.38-.46-.68-.61-.91Z" fill="#209ce2" stroke-width="0"/></svg>