<?xml version="1.0" encoding="UTF-8"?><svg id="a" xmlns="http://www.w3.org/2000/svg" viewBox="0 0 31 31"><circle cx="15.5" cy="15.5" r="14.25" fill="none" stroke="#877eff" stroke-miterlimit="10" stroke-width="2.5"/><circle cx="19.91" cy="7" r="1.48" fill="#877eff" stroke-width="0"/><path d="M5.95,18.16c0,3.2,1.34,5.68,3.45,6.75.96.49,2.1-.25,2.1-1.33v-.05c0-.57-.31-1.12-.84-1.33-1.3-.51-2.19-1.92-2.19-4.01,0-2.35,1.18-3.65,2.64-3.65,3.98,0,1.66,10.57,8.32,10.57,2.74,0,4.99-2.58,4.99-6.56,0-3.11-1.31-5.38-3.57-6.31-.97-.4-2.04.31-2.04,1.36h0c0,.6.35,1.15.91,1.35,1.31.47,2.19,1.74,2.19,3.69,0,2.19-1.04,3.49-2.48,3.49-4.24,0-1.92-10.37-8.32-10.5-2.94,0-5.16,2.58-5.16,6.52Z" fill="#877eff" stroke-width="0"/></svg>