<?xml version="1.0" encoding="UTF-8"?><svg id="a" xmlns="http://www.w3.org/2000/svg" viewBox="0 0 30.5 30.5"><circle cx="15.25" cy="15.25" r="14.25" fill="none" stroke="#877eff" stroke-miterlimit="10" stroke-width="2"/><circle cx="20.98" cy="7.75" r="1" fill="#877eff" stroke-width="0"/><path d="M22.12,21.16c.59-.74.89-1.7.89-2.88s-.28-2.12-.85-2.8c-.39-.47-.83-.8-1.32-.98-.4-.15-.66-.51-.66-.94h0c0-.74.77-1.22,1.45-.91s1.29.79,1.78,1.4c.81,1,1.21,2.38,1.21,4.13s-.47,3.16-1.4,4.23c-.93,1.07-2.12,1.6-3.55,1.6s-2.53-.36-3.28-1.08c-.75-.72-1.26-1.58-1.52-2.6-.26-1.01-.49-2.03-.69-3.04-.2-1.01-.55-1.88-1.06-2.6-.51-.72-1.27-1.08-2.29-1.08s-1.86.39-2.54,1.17c-.68.78-1.02,1.83-1.02,3.15s.28,2.31.85,2.97c.4.47.88.8,1.44.97.42.13.7.51.7.95v.02c0,.69-.68,1.17-1.34.96-.79-.26-1.46-.77-2-1.52-.83-1.15-1.24-2.64-1.24-4.48s.53-3.29,1.59-4.35,2.3-1.59,3.72-1.59c.95,0,1.75.19,2.4.58s1.13.88,1.44,1.49c.31.61.57,1.28.77,2.02.2.74.38,1.47.54,2.21.16.74.35,1.41.58,2.02.22.61.57,1.11,1.04,1.49.47.39,1.07.58,1.8.58,1.13,0,1.99-.37,2.58-1.1Z" fill="#877eff" stroke-width="0"/></svg>