<?xml version="1.0" encoding="UTF-8"?>
<svg id="a" xmlns="http://www.w3.org/2000/svg" viewBox="0 0 31 31">
    <circle cx="15.5" cy="15.5" r="14.25" fill="none" stroke="#209ce2" stroke-miterlimit="10"
        stroke-width="2.5" />
    <circle cx="19.91" cy="8" r="1.48" fill="#209ce2" stroke-width="0" />
    <path
        d="M7.37,17.38c0,2.82,1.18,5,3.03,5.94.85.43,1.85-.22,1.85-1.17v-.04c0-.5-.28-.98-.74-1.17-1.14-.45-1.93-1.69-1.93-3.53,0-2.07,1.04-3.22,2.33-3.22,3.5,0,1.47,9.31,7.33,9.31,2.41,0,4.4-2.27,4.4-5.78,0-2.73-1.15-4.74-3.14-5.55-.85-.35-1.8.27-1.8,1.2h0c0,.52.31,1.02.8,1.19,1.15.41,1.92,1.53,1.92,3.25,0,1.93-.92,3.07-2.18,3.07-3.73,0-1.69-9.13-7.33-9.25-2.59,0-4.54,2.27-4.54,5.74Z"
        fill="#209ce2" stroke-width="0" />
</svg>