<?xml version="1.0" encoding="UTF-8"?><svg id="a" xmlns="http://www.w3.org/2000/svg" viewBox="0 0 91.37 31"><circle cx="15.5" cy="15.5" r="14.25" fill="none" stroke="#209ce2" stroke-miterlimit="10" stroke-width="2"/><circle cx="19.91" cy="8" r="1.48" fill="#209ce2" stroke-width="0"/><path d="M31.85,18.15c0-1.2.43-2.27,1.29-3.21s1.78-1.41,2.75-1.41c.55,0,.82.14.82.42v.12h.46c.37,0,.56.17.56.52v.12l-.56,3.44c-.01.05-.02.13-.02.22,0,.32.11.48.34.48.51,0,1.11-.45,1.8-1.34.09-.12.19-.18.28-.18.13,0,.25.1.34.31.09.21.14.39.14.54s-.01.27-.04.35c-.31.43-.71.82-1.2,1.17-.49.35-.96.53-1.41.53s-.79-.12-1.04-.35c-.25-.23-.4-.55-.45-.95v.04c-.23.43-.53.76-.9,1-.39.24-.85.36-1.38.36s-.96-.2-1.29-.61c-.33-.41-.49-.93-.49-1.57ZM34.11,18.93c.36,0,.7-.2,1.03-.6.33-.4.55-.84.67-1.32l.54-2.24c-.77,0-1.47.37-2.08,1.1-.61.73-.92,1.43-.92,2.08s.25.98.76.98Z" fill="#fff" stroke-width="0"/><path d="M44.61,18.89c.51-.11,1.12-.5,1.84-1.18.05-.05.13-.08.23-.08s.21.09.32.27.17.32.17.42-.01.18-.04.23c-.43.55-.96.97-1.6,1.26-.64.29-1.17.44-1.6.44-.77,0-1.16-.42-1.16-1.26,0-.44.13-1.07.4-1.9.27-.83.4-1.27.4-1.33s-.01-.09-.04-.09h-.02c-.23.09-.7.62-1.43,1.59-.73.97-1.17,1.65-1.33,2.05s-.3.66-.41.77c-.11.11-.3.17-.55.17-.49-.01-.74-.52-.74-1.52.03-1.41.32-2.87.88-4.38.17-.48.47-.72.88-.72.16,0,.29.05.4.16.11.11.16.22.16.33s0,.19-.02.23c-.31.88-.55,1.87-.74,2.96.69-1.2,1.37-2.12,2.04-2.75.67-.63,1.26-.95,1.78-.95.27,0,.5.08.7.25.2.17.3.34.3.53,0,.29-.17.96-.51,1.99s-.52,1.64-.55,1.83c-.03.19-.04.35-.04.49s.04.21.13.2c.09,0,.14,0,.15,0Z" fill="#fff" stroke-width="0"/><path d="M50.16,13.89c.2,0,.37.06.5.17.13.11.2.24.2.39,0,.48-.09.82-.27,1.01s-1.31,1.22-3.39,3.09c0,.16.08.29.25.4.17.11.41.16.73.16.87,0,1.99-.41,3.36-1.22.01-.01.05-.02.11-.02s.12.06.18.17c.06.11.09.26.09.45s-.07.33-.22.44c-1.25.93-2.51,1.4-3.76,1.4-.64,0-1.16-.13-1.55-.4s-.59-.63-.59-1.09.25-.91.76-1.35l2.98-2.52c-1.33.11-2.31.16-2.92.16-.08,0-.16-.08-.24-.23s-.12-.32-.12-.49c0-.33.17-.5.5-.5l3.4-.02Z" fill="#fff" stroke-width="0"/><path d="M51.63,16.23c0-1.17.19-2.28.58-3.32.67-1.88,1.87-3.41,3.62-4.6,1.55-1.07,3.15-1.6,4.8-1.6,1.09,0,1.99.28,2.68.84.69.56,1.04,1.37,1.04,2.42,0,.68-.33,1.02-.98,1.02-.29,0-.52-.07-.69-.22-.17-.15-.25-.45-.25-.92s-.18-.83-.55-1.1c-.37-.27-.85-.4-1.45-.4-1.2,0-2.38.42-3.54,1.26-.6.44-1.14.96-1.63,1.55-.49.59-.88,1.33-1.19,2.21s-.46,1.82-.46,2.82c0,1.27.34,2.2,1.03,2.8.69.6,1.6.9,2.75.9,1.52,0,3.23-.47,5.12-1.4l.12-.58c.01-.05.02-.13.02-.24s-.07-.18-.2-.22c-.13-.04-.4-.06-.8-.06s-.69-.05-.88-.15c-.19-.1-.28-.29-.28-.57,0-.55.41-.82,1.22-.82,1.01,0,1.71.08,2.08.25s.56.49.56.97c0,.19-.03.45-.1.78-.56,3.07-1.31,5.34-2.26,6.81-.95,1.47-2.15,2.21-3.6,2.21-.65,0-1.36-.14-2.12-.42-.49-.19-.74-.48-.74-.88,0-.25.1-.48.29-.69.19-.21.41-.31.65-.31.04,0,.11.01.22.04.69.25,1.29.38,1.8.38.81,0,1.51-.39,2.1-1.18.59-.79,1.15-2.16,1.7-4.12-.29.4-.97.78-2.03,1.14-1.06.36-2.15.54-3.27.54-1.47,0-2.7-.37-3.7-1.1-1.11-.8-1.66-2.15-1.66-4.04Z" fill="#fff" stroke-width="0"/><path d="M66.75,17.71c.24-.76.69-1.63,1.35-2.6.66-.97,1.2-1.46,1.61-1.46.59,0,.88.23.88.68,0,.29-.07.63-.21,1.01-.14.38-.21.61-.21.69,0,.2.14.3.43.3s.76-.19,1.41-.58c.03-.01.08-.02.16-.02s.18.07.31.22c.13.15.19.28.19.39s-.03.2-.08.25c-.8.72-1.58,1.08-2.34,1.08-.91,0-1.36-.39-1.36-1.16,0-.03.11-.46.32-1.3-.01,0-.12.16-.32.48-.63,1.04-1.24,2.38-1.84,4.02-.17.35-.46.52-.86.52-.55,0-.82-.44-.82-1.32v-.16c0-1.44.21-2.85.62-4.22.2-.6.52-.9.96-.9.17,0,.31.05.42.16.11.11.16.24.16.4l-.78,3.52Z" fill="#fff" stroke-width="0"/><path d="M71.45,18.15c0-1.2.43-2.27,1.29-3.21s1.78-1.41,2.75-1.41c.55,0,.82.14.82.42v.12h.46c.37,0,.56.17.56.52v.12l-.56,3.44c-.01.05-.02.13-.02.22,0,.32.11.48.34.48.51,0,1.11-.45,1.8-1.34.09-.12.19-.18.28-.18.13,0,.25.1.34.31.09.21.14.39.14.54s-.01.27-.04.35c-.31.43-.71.82-1.2,1.17-.49.35-.96.53-1.41.53s-.79-.12-1.04-.35c-.25-.23-.4-.55-.45-.95v.04c-.23.43-.53.76-.9,1-.39.24-.85.36-1.38.36s-.96-.2-1.29-.61c-.33-.41-.49-.93-.49-1.57ZM73.71,18.93c.36,0,.7-.2,1.03-.6.33-.4.55-.84.67-1.32l.54-2.24c-.77,0-1.47.37-2.08,1.1-.61.73-.92,1.43-.92,2.08s.25.98.76.98Z" fill="#fff" stroke-width="0"/><path d="M82.21,19.19c0-.67.25-1.95.74-3.84-.79,1.13-1.51,2.37-2.18,3.72-.17.36-.34.63-.49.81-.15.18-.27.28-.35.31-.08.03-.19.04-.34.04-.52,0-.78-.42-.78-1.26,0-1.55.26-3.1.78-4.66.15-.45.4-.68.76-.68.13,0,.25.04.36.12.11.08.16.17.16.28s0,.18-.02.22c-.33,1.08-.58,2.31-.74,3.7.59-1.47,1.17-2.55,1.76-3.24s1.09-1.04,1.52-1.04c.19,0,.35.05.5.16.15.11.22.25.22.44,0,.61-.21,1.76-.64,3.44,1.03-2.71,2.1-4.06,3.22-4.06.6,0,.9.3.9.9,0,.39-.16,1.04-.49,1.97-.33.93-.49,1.64-.49,2.13,0,.35.16.52.48.52.09,0,.16,0,.2-.02.35-.08.96-.55,1.84-1.4.05-.05.13-.08.24-.08s.23.06.37.19c.14.13.21.22.21.28s-.01.12-.04.17c-.43.59-.95,1.06-1.57,1.42-.62.36-1.16.54-1.61.54h-.04c-.43,0-.76-.13-1-.39-.24-.26-.36-.59-.36-.99v-.18c.07-.61.37-1.77.9-3.46-.59.49-1.42,1.93-2.5,4.32-.21.44-.46.66-.74.66-.52,0-.78-.35-.78-1.04Z" fill="#fff" stroke-width="0"/><g opacity=".98"><path d="M15.37,26.64c4.63,0,6.94-1.43,6.94-4.29,0-1.25-.57-2.29-1.72-3.12-.62-.47-1.17-.84-1.64-1.11-.47-.27-1.22-.67-2.26-1.19-1.04-.52-1.73-.87-2.07-1.05-.34-.18-.78-.42-1.33-.7-.55-.29-.91-.48-1.09-.58-.18-.1-.49-.29-.94-.55-.44-.26-.75-.45-.92-.58-.17-.13-.43-.33-.78-.6-.35-.27-.59-.51-.72-.72-.13-.21-.3-.47-.51-.78-.52-.73-.78-1.77-.78-3.12,0-1.53.57-2.86,1.72-3.98,2.18-2.18,5.39-3.28,9.63-3.28,2.7,0,4.91.53,6.63,1.6,1.72,1.07,2.6,2.59,2.65,4.56-.03,1.72-.62,3.2-1.79,4.45-.73.73-1.42,1.09-2.07,1.09s-1.16-.17-1.52-.51c-.36-.34-.55-.73-.55-1.17,0-.39.16-.78.47-1.17.83-.75,1.25-1.65,1.25-2.69,0-2-1.85-3-5.54-3-1.85,0-3.3.36-4.35,1.07s-1.58,1.62-1.58,2.71c0,.52.12,1.01.35,1.48.08.21.24.42.49.64s.47.41.66.57c.2.16.52.36.98.6.45.25.84.46,1.17.64.32.18.83.45,1.52.8.69.35,1.48.75,2.36,1.21.88.46,1.79.94,2.73,1.46,1.59.91,2.69,1.81,3.32,2.69.78,1.09,1.17,2.44,1.17,4.06,0,2.5-1.12,4.45-3.35,5.87s-5.13,2.13-8.7,2.13c-4.24,0-7.38-1.09-9.44-3.28-1.12-1.14-1.73-2.56-1.83-4.25v-.31c0-1.17.38-2.22,1.15-3.14.77-.92,1.79-1.38,3.06-1.38.86,0,1.29.39,1.29,1.17,0,.36-.18.84-.55,1.42-.36.58-.55,1.19-.55,1.81,0,1.61.58,2.77,1.75,3.47s2.92,1.05,5.26,1.05Z" fill="#209ce2" stroke-width="0"/></g></svg>